<svg width="25" height="24" viewBox="0 0 25 24" fill="none" xmlns="http://www.w3.org/2000/svg">
<path d="M9.16665 2C7.16665 2 6.5 3.57821 6.5 5.525C6.5 9.05 10.4 12.2545 12.5 13C14.6 12.2545 18.5 9.05 18.5 5.525C18.5 3.57821 17.6559 2 15.8334 2C14.7173 2 13.0972 3.53855 12.5 4.44445C11.9028 3.53855 10.2827 2 9.16665 2Z" stroke="#959595" stroke-width="2" stroke-linecap="round" stroke-linejoin="round"/>
<path d="M12.5 13C11.5 13.5454 10 14.75 10 16.5C10 18.25 15 17.75 15 19.5C15 21.25 9.5 22 9.5 22" stroke="#959595" stroke-width="2" stroke-linecap="round" stroke-linejoin="round"/>
</svg>
