<svg width="20" height="20" viewBox="0 0 20 20" fill="none" xmlns="http://www.w3.org/2000/svg">
<g clip-path="url(#clip0_184_464)">
<path d="M20 0H0V20H20V0Z" fill="white" fill-opacity="0.01"/>
<path d="M14.5833 6.66667C15.7339 6.66667 16.6667 5.73392 16.6667 4.58333C16.6667 3.43274 15.7339 2.5 14.5833 2.5C13.4327 2.5 12.5 3.43274 12.5 4.58333C12.5 5.73392 13.4327 6.66667 14.5833 6.66667Z" stroke="#555555" stroke-width="2" stroke-linejoin="round"/>
<path d="M5.41659 12.0834C6.56717 12.0834 7.49992 11.1506 7.49992 10C7.49992 8.84944 6.56717 7.91669 5.41659 7.91669C4.266 7.91669 3.33325 8.84944 3.33325 10C3.33325 11.1506 4.266 12.0834 5.41659 12.0834Z" stroke="#555555" stroke-width="2" stroke-linejoin="round"/>
<path d="M12.5001 5.65607L7.22461 8.85228" stroke="#555555" stroke-width="2" stroke-linecap="round" stroke-linejoin="round"/>
<path d="M7.22461 11.0683L12.7831 14.3529" stroke="#555555" stroke-width="2" stroke-linecap="round" stroke-linejoin="round"/>
<path d="M14.5833 13.3333C15.7339 13.3333 16.6667 14.2661 16.6667 15.4166C16.6667 16.5672 15.7339 17.5 14.5833 17.5C13.4327 17.5 12.5 16.5672 12.5 15.4166C12.5 14.2661 13.4327 13.3333 14.5833 13.3333Z" stroke="#555555" stroke-width="2" stroke-linejoin="round"/>
</g>
<defs>
<clipPath id="clip0_184_464">
<rect width="20" height="20" fill="white"/>
</clipPath>
</defs>
</svg>
